<svg width="192" height="32" viewBox="0 0 192 32" fill="none" xmlns="http://www.w3.org/2000/svg">
<g clip-path="url(#clip0_128_122)">
<path d="M8.21773 7.27106C12.6485 7.27106 16.2461 10.8687 16.2461 15.2995V16.0379H0.927791C0.530158 16.0379 0.208266 15.716 0.189331 15.2995C0.189331 10.8687 3.76803 7.27106 8.21773 7.27106Z" fill="#F6B704"/>
<path d="M24.994 7.99056C24.994 12.4213 21.3964 16.019 16.9656 16.019H16.2272V0.700619C16.2272 0.302985 16.5491 -0.0378418 16.9467 -0.0378418C21.3964 -0.0378418 24.994 3.55979 24.994 7.99056Z" fill="#E54335"/>
<path d="M24.2745 24.7858C19.8437 24.7858 16.2461 21.1882 16.2461 16.7574V16.019H31.5644C31.9621 16.019 32.3029 16.3409 32.3029 16.7385C32.3029 21.1882 28.7053 24.7858 24.2745 24.7858Z" fill="#4280EF"/>
<path d="M7.47925 24.0474C7.47925 19.6166 11.0769 16.019 15.5076 16.019H16.2461V31.3373C16.2461 31.735 15.9242 32.0568 15.5076 32.0758C11.0769 32.0758 7.47925 28.4782 7.47925 24.0474Z" fill="#34A353"/>
<path d="M41.7515 15.6402C41.7515 10.1681 46.3527 5.69942 51.8248 5.69942C54.3811 5.66155 56.8237 6.64616 58.6414 8.44498L56.729 10.3574C55.4225 9.08876 53.6615 8.38817 51.8248 8.42604C47.8296 8.42604 44.7053 11.645 44.7053 15.6592C44.7053 19.6734 47.8296 22.8734 51.8248 22.8734C54.4189 22.8734 55.8958 21.832 56.8426 20.8852C57.6189 20.1089 58.1302 18.9917 58.3195 17.4769H51.8248V14.7503H60.9704C61.0651 15.3184 61.1219 15.8864 61.1219 16.4544C61.1219 18.4994 60.5728 21.0178 58.7739 22.7976C57.0319 24.6154 54.7976 25.5811 51.8438 25.5811C46.3526 25.5621 41.7515 21.1124 41.7515 15.6402Z" fill="#757575"/>
<path d="M68.5065 12.7811C64.9656 12.7811 62.0875 15.4698 62.0875 19.1811C62.0875 22.8923 64.9656 25.5811 68.5065 25.5811C72.0473 25.5811 74.9254 22.8734 74.9254 19.1811C74.9254 15.4888 72.0473 12.7811 68.5065 12.7811ZM68.5065 23.0438C66.5751 23.0438 64.8899 21.4533 64.8899 19.1621C64.8899 16.871 66.5562 15.2805 68.5065 15.2805C70.4378 15.2805 72.123 16.8521 72.123 19.1621C72.123 21.4722 70.4378 23.0438 68.5065 23.0438Z" fill="#757575"/>
<path d="M82.5183 12.7811C78.9775 12.7811 76.0994 15.4698 76.0994 19.1811C76.0994 22.8923 78.9775 25.5811 82.5183 25.5811C86.0591 25.5811 88.9372 22.8734 88.9372 19.1811C88.9372 15.4888 86.0591 12.7811 82.5183 12.7811ZM82.5183 23.0438C80.5869 23.0438 78.9017 21.4533 78.9017 19.1621C78.9017 16.871 80.568 15.2805 82.5183 15.2805C84.4686 15.2805 86.1349 16.8521 86.1349 19.1621C86.1349 21.4722 84.4497 23.0438 82.5183 23.0438Z" fill="#757575"/>
<path d="M99.7112 13.1598V14.2012H99.6165C98.9917 13.4438 97.7798 12.7621 96.2461 12.7621C93.0461 12.7621 90.1112 15.5834 90.1112 19.1811C90.1112 22.7787 93.0461 25.5621 96.2461 25.5621C97.7798 25.5621 98.9917 24.8805 99.6165 24.1042H99.7112V25.032C99.7112 27.4746 98.4047 28.7811 96.3029 28.7811C94.5798 28.7811 93.5195 27.5503 93.084 26.5089L90.6414 27.5314C91.5881 29.8225 93.8224 31.3373 96.3219 31.3184C99.6165 31.3184 102.4 29.387 102.4 24.6533V13.1598H99.7112ZM96.4923 23.0438C94.5609 23.0438 92.9325 21.4154 92.9325 19.1811C92.9325 16.9468 94.5609 15.2805 96.4923 15.2805C98.4236 15.2805 99.9005 16.9278 99.9005 19.1811C99.9005 21.4343 98.4047 23.0438 96.4923 23.0438Z" fill="#757575"/>
<path d="M107.115 6.3811H104.312V25.1835H107.115V6.3811Z" fill="#757575"/>
<path d="M114.84 23.0438C113.401 23.0438 112.398 22.3811 111.735 21.1124L120.294 17.5716L120.009 16.8521C119.479 15.413 117.851 12.7811 114.537 12.7811C111.224 12.7811 108.497 15.3752 108.497 19.1811C108.497 22.7787 111.205 25.5811 114.84 25.5811C116.98 25.6 118.987 24.5207 120.18 22.7408L118.002 21.2828C117.264 22.3432 116.26 23.0438 114.84 23.0438ZM114.613 15.2426C115.73 15.2426 116.677 15.7917 116.98 16.6059L111.262 18.9728C111.205 16.5112 113.193 15.2426 114.613 15.2426Z" fill="#757575"/>
<path d="M143.792 9.0698C143.621 9.41063 143.527 9.8272 143.432 10.2816C142.902 12.8189 141.728 16.7195 139.815 19.2189C137.619 22.0592 134.722 24.3124 130.272 25.7136L128.625 23.8958C133.321 22.7029 136.047 20.639 138.073 18.0639C139.796 15.8674 140.932 12.497 141.254 10.168H128.871C127.905 10.168 127.072 10.2248 126.447 10.2438V8.10413C127.129 8.17987 128.076 8.25561 128.871 8.25561H141.046C141.406 8.25561 141.879 8.2556 142.334 8.142L143.792 9.0698Z" fill="#757575"/>
<path d="M165.946 13.955C166.438 13.955 167.233 13.8982 167.574 13.8604V15.7728C167.138 15.7539 166.457 15.6971 166.002 15.6971H162.48C162.537 18.7456 162.594 22.7219 162.632 25.013C162.651 26.0545 161.875 26.6793 160.814 26.6793C159.848 26.6793 158.277 26.5846 157.292 26.5278L157.198 24.7669C158.163 24.9184 159.432 24.9941 160.151 24.9941C160.587 24.9941 160.814 24.729 160.814 24.2935C160.814 22.7598 160.795 20.0521 160.738 17.4769C159.091 19.8059 155.607 22.8734 152.312 24.6343L150.949 23.1385C154.585 21.3965 158.277 18.1965 159.924 15.716H153.449C152.786 15.716 152.18 15.7349 151.612 15.7917V13.8793C152.161 13.955 152.824 13.974 153.411 13.974H160.701C160.682 13.1408 160.644 12.4781 160.625 12.0047C160.625 11.5124 160.549 10.9065 160.454 10.3763H162.518C162.443 10.8876 162.424 11.4367 162.424 12.0047L162.48 13.974H165.946V13.955Z" fill="#757575"/>
<path d="M190.239 18.9539C187.588 17.5148 183.404 15.9053 180.715 15.0533L180.734 23.0438C180.734 23.8201 180.79 25.1077 180.885 25.903H178.556C178.651 25.1266 178.708 23.9337 178.708 23.0438V8.93729C178.708 8.25563 178.651 7.17634 178.518 6.41895H180.885C180.809 7.17634 180.715 8.21776 180.715 8.93729V12.8947C183.915 13.8604 188.497 15.6024 191.072 16.89L190.239 18.9539Z" fill="#757575"/>
</g>
<defs>
<clipPath id="clip0_128_122">
<rect width="191.053" height="32" fill="white"/>
</clipPath>
</defs>
</svg>
